<?xml version="1.0" encoding="UTF-8"?> <svg xmlns="http://www.w3.org/2000/svg" width="357" height="80" viewBox="0 0 357 80" fill="none"> <g clip-path="url(#clip0_3189_8372)"> <path d="M61.6589 30.3961C54.6369 30.3961 50.9036 32.9724 50.9036 40.4389V64.4343H36.2384V16.6201H50.3679V25.6882C52.5907 20.0912 56.5919 16.5346 63.4315 16.2667C64.1439 16.2667 64.9419 16.2667 65.6543 16.3522V30.664C64.0527 30.4873 62.9869 30.3961 61.6532 30.3961" fill="#1A1A1A"></path> <path d="M71.4338 64.44H86.1902V16.6201H71.4338V64.44ZM71.4338 11.7355H86.099V0H71.4338V11.7355Z" fill="#1A1A1A"></path> <path d="M117.584 54.2149C123.449 54.2149 128.248 49.4158 128.248 40.5301C128.248 31.6443 123.449 26.9307 117.584 26.9307C111.719 26.9307 107.005 30.664 107.005 40.5301C107.005 50.3961 111.804 54.2149 117.584 54.2149ZM122.383 15.5543C134.649 15.5543 143.449 24.8846 143.449 40.5301C143.449 56.1755 134.649 65.597 122.383 65.597C117.139 65.597 110.83 63.283 107.718 58.045V80H93.0526V16.6201H107.718V23.1063C110.83 17.8626 117.139 15.5543 122.383 15.5543Z" fill="#1A1A1A"></path> <path d="M162.645 0H147.98V64.44H162.645V0Z" fill="#1A1A1A"></path> <path d="M202.389 35.3719C202.212 29.4158 197.858 26.395 192.346 26.395C187.194 26.395 182.48 29.0624 181.682 35.3719H202.389ZM192.968 65.5913C177.413 65.5913 166.749 56.0787 166.749 40.2622C166.749 24.4457 178.393 15.2009 192.346 15.2009C208.168 15.2009 217.943 27.2898 216.969 44.2633H181.506C181.95 51.0174 187.194 54.2206 192.529 54.2206C197.864 54.2206 201.591 52.2656 203.284 49.4215H216.792C212.529 60.7067 202.571 65.597 192.973 65.597" fill="#1A1A1A"></path> <path d="M290.671 35.3719C290.494 29.4158 286.14 26.395 280.628 26.395C275.476 26.395 270.762 29.0624 269.964 35.3719H290.671ZM281.249 65.5913C265.695 65.5913 255.031 56.0787 255.031 40.2622C255.031 24.4457 266.675 15.2009 280.628 15.2009C296.45 15.2009 306.225 27.2898 305.245 44.2633H269.782C270.226 51.0174 275.47 54.2206 280.805 54.2206C286.14 54.2206 289.867 52.2656 291.56 49.4215H305.068C300.799 60.7067 290.848 65.597 281.249 65.597" fill="#1A1A1A"></path> <path d="M340.002 15.5543C352.267 15.5543 356.086 22.7529 356.086 35.731V64.44H341.421V39.3787C341.421 32.5335 341.153 26.9364 334.045 26.9364C327.827 26.9364 325.16 31.1143 325.16 39.9145V64.4457H310.494V16.6201H325.16V22.9296C327.291 19.373 332.535 15.5543 340.002 15.5543Z" fill="#1A1A1A"></path> <path d="M236.895 52.1402L236.878 27.0162H251.48V16.6201H236.878V3.55657H222.212V38.1362C222.212 44.1208 222.634 52.1402 234.113 52.1402C234.113 54.2206 236.45 65.3861 253.139 64.3716V52.1402H236.895Z" fill="#1A1A1A"></path> <path d="M14.6823 52.1402L14.6652 27.0162H29.2677V16.6201H14.6652V3.55657H0V38.1362C0 44.1208 0.421775 52.1402 11.9009 52.1402C11.9009 54.2206 14.2377 65.3861 30.9263 64.3716V52.1402H14.6823Z" fill="#1A1A1A"></path> </g> <defs> <clipPath id="clip0_3189_8372"> <rect width="357" height="80" fill="white"></rect> </clipPath> </defs> </svg> 